<svg xmlns="http://www.w3.org/2000/svg" width="24" height="24" viewBox="0 0 24 24" fill="none" stroke="currentColor" stroke-width="2" stroke-linecap="round" stroke-linejoin="round" class="lucide lucide-cheese"><path d="M5.2 8.2 2 9.9V14c0 1.1.9 2 2 2h16a2 2 0 0 0 2-2v-4.1l-3.2-1.7"/><path d="M2.5 10a2.5 2.5 0 0 1 5 0"/><path d="M6.5 10a2.5 2.5 0 0 1 5 0"/><path d="M10.5 10a2.5 2.5 0 0 1 5 0"/><path d="M14.5 10a2.5 2.5 0 0 1 5 0"/><path d="M18.5 10a2.5 2.5 0 0 1 5 0"/><path d="M20 10h2v4"/><path d="M2 10h2v4"/><path d="m22 9.9-3.8-2.1A2 2 0 0 0 16.8 7H7.2a2 2 0 0 0-1.4.8L2 9.9"/><path d="M22 14H2"/><path d="M4 14v1"/><path d="M20 14v1"/><path d="M12 14v1"/></svg>